<mxfile host="app.diagrams.net" modified="2021-01-15T02:51:03.555Z" agent="5.0 (Windows NT 10.0; Win64; x64) AppleWebKit/537.36 (KHTML, like Gecko) Chrome/87.0.4280.141 Safari/537.36" etag="RIAM8FRW5aoi_tPtPwit" version="14.2.2" type="github">
  <diagram id="DJwqwhiBo1FagUisFqd2" name="Page-1">
    <mxGraphModel dx="1185" dy="690" grid="1" gridSize="10" guides="1" tooltips="1" connect="1" arrows="1" fold="1" page="1" pageScale="1" pageWidth="850" pageHeight="1100" math="0" shadow="0">
      <root>
        <mxCell id="0" />
        <mxCell id="1" parent="0" />
        <mxCell id="h4dQgeBkex-8hFXXdaQL-13" value="PC 1" style="fontColor=#0066CC;verticalAlign=top;verticalLabelPosition=bottom;labelPosition=center;align=center;html=1;outlineConnect=0;fillColor=#CCCCCC;strokeColor=#6881B3;gradientColor=none;gradientDirection=north;strokeWidth=2;shape=mxgraph.networks.pc;" parent="1" vertex="1">
          <mxGeometry x="105" y="650" width="100" height="70" as="geometry" />
        </mxCell>
        <mxCell id="h4dQgeBkex-8hFXXdaQL-14" value="PC4" style="fontColor=#0066CC;verticalAlign=top;verticalLabelPosition=bottom;labelPosition=center;align=center;html=1;outlineConnect=0;fillColor=#CCCCCC;strokeColor=#6881B3;gradientColor=none;gradientDirection=north;strokeWidth=2;shape=mxgraph.networks.pc;" parent="1" vertex="1">
          <mxGeometry x="645" y="660" width="100" height="70" as="geometry" />
        </mxCell>
        <mxCell id="h4dQgeBkex-8hFXXdaQL-15" value="PC 2" style="fontColor=#0066CC;verticalAlign=top;verticalLabelPosition=bottom;labelPosition=center;align=center;html=1;outlineConnect=0;fillColor=#CCCCCC;strokeColor=#6881B3;gradientColor=none;gradientDirection=north;strokeWidth=2;shape=mxgraph.networks.pc;" parent="1" vertex="1">
          <mxGeometry x="285" y="650" width="100" height="70" as="geometry" />
        </mxCell>
        <mxCell id="h4dQgeBkex-8hFXXdaQL-17" value="PC 4" style="fontColor=#0066CC;verticalAlign=top;verticalLabelPosition=bottom;labelPosition=center;align=center;html=1;outlineConnect=0;fillColor=#CCCCCC;strokeColor=#6881B3;gradientColor=none;gradientDirection=north;strokeWidth=2;shape=mxgraph.networks.pc;" parent="1" vertex="1">
          <mxGeometry x="465" y="650" width="100" height="70" as="geometry" />
        </mxCell>
        <mxCell id="h4dQgeBkex-8hFXXdaQL-28" value="" style="edgeStyle=none;rounded=0;endArrow=none;html=1;strokeWidth=2;entryX=0.1;entryY=1;entryDx=0;entryDy=0;entryPerimeter=0;" parent="1" source="h4dQgeBkex-8hFXXdaQL-13" target="7qble474jrgHWav1tE7M-12" edge="1">
          <mxGeometry relative="1" as="geometry">
            <mxPoint x="285" y="180" as="sourcePoint" />
            <mxPoint x="425" y="410" as="targetPoint" />
          </mxGeometry>
        </mxCell>
        <mxCell id="h4dQgeBkex-8hFXXdaQL-30" value="" style="edgeStyle=none;rounded=0;endArrow=none;html=1;strokeWidth=2;" parent="1" source="h4dQgeBkex-8hFXXdaQL-15" target="7qble474jrgHWav1tE7M-12" edge="1">
          <mxGeometry relative="1" as="geometry">
            <mxPoint x="224.996972010178" y="330" as="sourcePoint" />
            <mxPoint x="455.4310344827586" y="410" as="targetPoint" />
          </mxGeometry>
        </mxCell>
        <mxCell id="h4dQgeBkex-8hFXXdaQL-32" value="" style="edgeStyle=none;rounded=0;endArrow=none;html=1;strokeWidth=2;" parent="1" source="7qble474jrgHWav1tE7M-12" target="h4dQgeBkex-8hFXXdaQL-17" edge="1">
          <mxGeometry relative="1" as="geometry">
            <mxPoint x="470.1724137931035" y="410" as="sourcePoint" />
            <mxPoint x="410" y="371.5" as="targetPoint" />
          </mxGeometry>
        </mxCell>
        <mxCell id="h4dQgeBkex-8hFXXdaQL-33" value="" style="edgeStyle=none;rounded=0;endArrow=none;html=1;strokeWidth=2;exitX=0.9;exitY=1;exitDx=0;exitDy=0;exitPerimeter=0;" parent="1" source="7qble474jrgHWav1tE7M-12" target="h4dQgeBkex-8hFXXdaQL-14" edge="1">
          <mxGeometry relative="1" as="geometry">
            <mxPoint x="505" y="410" as="sourcePoint" />
            <mxPoint x="638.9473684210529" y="210" as="targetPoint" />
          </mxGeometry>
        </mxCell>
        <mxCell id="h4dQgeBkex-8hFXXdaQL-35" value="ISM CAFE" style="rounded=0;whiteSpace=wrap;html=1;fontColor=#000000;fontSize=19;fontStyle=1" parent="1" vertex="1">
          <mxGeometry x="325" y="70" width="260" height="60" as="geometry" />
        </mxCell>
        <mxCell id="7qble474jrgHWav1tE7M-9" style="edgeStyle=orthogonalEdgeStyle;rounded=0;orthogonalLoop=1;jettySize=auto;html=1;" edge="1" parent="1" source="7qble474jrgHWav1tE7M-1" target="7qble474jrgHWav1tE7M-7">
          <mxGeometry relative="1" as="geometry" />
        </mxCell>
        <mxCell id="7qble474jrgHWav1tE7M-1" value="INTERNET" style="ellipse;shape=cloud;whiteSpace=wrap;html=1;fillColor=#dae8fc;strokeColor=#6c8ebf;" vertex="1" parent="1">
          <mxGeometry x="25" y="317.5" width="120" height="80" as="geometry" />
        </mxCell>
        <mxCell id="7qble474jrgHWav1tE7M-10" style="edgeStyle=orthogonalEdgeStyle;rounded=0;orthogonalLoop=1;jettySize=auto;html=1;" edge="1" parent="1" source="7qble474jrgHWav1tE7M-7" target="7qble474jrgHWav1tE7M-8">
          <mxGeometry relative="1" as="geometry" />
        </mxCell>
        <mxCell id="7qble474jrgHWav1tE7M-7" value="Modem" style="fontColor=#0066CC;verticalAlign=bottom;verticalLabelPosition=top;labelPosition=center;align=center;html=1;outlineConnect=0;fillColor=#CCCCCC;strokeColor=#6881B3;gradientColor=none;gradientDirection=north;strokeWidth=2;shape=mxgraph.networks.modem;" vertex="1" parent="1">
          <mxGeometry x="185" y="342.5" width="100" height="30" as="geometry" />
        </mxCell>
        <mxCell id="7qble474jrgHWav1tE7M-18" style="edgeStyle=orthogonalEdgeStyle;rounded=0;orthogonalLoop=1;jettySize=auto;html=1;entryX=0;entryY=0.5;entryDx=0;entryDy=0;entryPerimeter=0;" edge="1" parent="1" source="7qble474jrgHWav1tE7M-8" target="7qble474jrgHWav1tE7M-12">
          <mxGeometry relative="1" as="geometry">
            <mxPoint x="255" y="440" as="targetPoint" />
          </mxGeometry>
        </mxCell>
        <mxCell id="7qble474jrgHWav1tE7M-8" value="Router" style="fontColor=#0066CC;verticalAlign=top;verticalLabelPosition=bottom;labelPosition=center;align=center;html=1;outlineConnect=0;fillColor=#CCCCCC;strokeColor=#6881B3;gradientColor=none;gradientDirection=north;strokeWidth=2;shape=mxgraph.networks.router;" vertex="1" parent="1">
          <mxGeometry x="185" y="430" width="100" height="30" as="geometry" />
        </mxCell>
        <mxCell id="7qble474jrgHWav1tE7M-12" value="Switch" style="fontColor=#0066CC;verticalAlign=middle;verticalLabelPosition=middle;labelPosition=right;align=left;html=1;outlineConnect=0;fillColor=#CCCCCC;strokeColor=#6881B3;gradientColor=none;gradientDirection=north;strokeWidth=2;shape=mxgraph.networks.switch;" vertex="1" parent="1">
          <mxGeometry x="395" y="430" width="100" height="30" as="geometry" />
        </mxCell>
        <mxCell id="7qble474jrgHWav1tE7M-26" style="edgeStyle=orthogonalEdgeStyle;rounded=0;orthogonalLoop=1;jettySize=auto;html=1;entryX=1;entryY=0.07;entryDx=0;entryDy=0;entryPerimeter=0;fontColor=#000000;" edge="1" parent="1" source="7qble474jrgHWav1tE7M-14" target="7qble474jrgHWav1tE7M-25">
          <mxGeometry relative="1" as="geometry" />
        </mxCell>
        <mxCell id="7qble474jrgHWav1tE7M-14" value="Printer" style="fontColor=#0066CC;verticalAlign=top;verticalLabelPosition=bottom;labelPosition=center;align=center;html=1;outlineConnect=0;fillColor=#CCCCCC;strokeColor=#6881B3;gradientColor=none;gradientDirection=north;strokeWidth=2;shape=mxgraph.networks.printer;" vertex="1" parent="1">
          <mxGeometry x="715" y="130" width="100" height="100" as="geometry" />
        </mxCell>
        <mxCell id="7qble474jrgHWav1tE7M-27" style="edgeStyle=orthogonalEdgeStyle;rounded=0;orthogonalLoop=1;jettySize=auto;html=1;fontColor=#000000;" edge="1" parent="1" source="7qble474jrgHWav1tE7M-15" target="7qble474jrgHWav1tE7M-25">
          <mxGeometry relative="1" as="geometry" />
        </mxCell>
        <mxCell id="7qble474jrgHWav1tE7M-15" value="Scanner" style="fontColor=#0066CC;verticalAlign=top;verticalLabelPosition=bottom;labelPosition=center;align=center;html=1;outlineConnect=0;fillColor=#CCCCCC;strokeColor=#6881B3;gradientColor=none;gradientDirection=north;strokeWidth=2;shape=mxgraph.networks.scanner;" vertex="1" parent="1">
          <mxGeometry x="725" y="267.5" width="100" height="75" as="geometry" />
        </mxCell>
        <mxCell id="7qble474jrgHWav1tE7M-23" style="edgeStyle=orthogonalEdgeStyle;rounded=0;orthogonalLoop=1;jettySize=auto;html=1;exitX=1;exitY=0.5;exitDx=0;exitDy=0;exitPerimeter=0;entryX=0.9;entryY=0.507;entryDx=0;entryDy=0;entryPerimeter=0;fontColor=#000000;" edge="1" parent="1">
          <mxGeometry relative="1" as="geometry">
            <mxPoint x="455" y="232.5" as="sourcePoint" />
            <mxPoint x="445" y="232.99" as="targetPoint" />
          </mxGeometry>
        </mxCell>
        <mxCell id="7qble474jrgHWav1tE7M-28" style="edgeStyle=orthogonalEdgeStyle;rounded=0;orthogonalLoop=1;jettySize=auto;html=1;fontColor=#000000;" edge="1" parent="1" source="7qble474jrgHWav1tE7M-25" target="7qble474jrgHWav1tE7M-12">
          <mxGeometry relative="1" as="geometry" />
        </mxCell>
        <mxCell id="7qble474jrgHWav1tE7M-25" value="Server PC" style="fontColor=#0066CC;verticalAlign=bottom;verticalLabelPosition=top;labelPosition=center;align=center;html=1;outlineConnect=0;fillColor=#CCCCCC;strokeColor=#6881B3;gradientColor=none;gradientDirection=north;strokeWidth=2;shape=mxgraph.networks.pc;" vertex="1" parent="1">
          <mxGeometry x="395" y="220" width="100" height="70" as="geometry" />
        </mxCell>
        <mxCell id="7qble474jrgHWav1tE7M-36" style="edgeStyle=orthogonalEdgeStyle;rounded=0;orthogonalLoop=1;jettySize=auto;html=1;fontColor=#000000;" edge="1" parent="1" source="7qble474jrgHWav1tE7M-29" target="7qble474jrgHWav1tE7M-32">
          <mxGeometry relative="1" as="geometry" />
        </mxCell>
        <mxCell id="7qble474jrgHWav1tE7M-29" value="" style="fontColor=#0066CC;verticalAlign=top;verticalLabelPosition=bottom;labelPosition=center;align=center;html=1;outlineConnect=0;fillColor=#CCCCCC;strokeColor=#6881B3;gradientColor=none;gradientDirection=north;strokeWidth=2;shape=mxgraph.networks.security_camera;" vertex="1" parent="1">
          <mxGeometry x="25" y="217.5" width="100" height="75" as="geometry" />
        </mxCell>
        <mxCell id="7qble474jrgHWav1tE7M-35" style="edgeStyle=orthogonalEdgeStyle;rounded=0;orthogonalLoop=1;jettySize=auto;html=1;entryX=0;entryY=0.5;entryDx=0;entryDy=0;entryPerimeter=0;fontColor=#000000;" edge="1" parent="1" source="7qble474jrgHWav1tE7M-32" target="7qble474jrgHWav1tE7M-25">
          <mxGeometry relative="1" as="geometry" />
        </mxCell>
        <mxCell id="7qble474jrgHWav1tE7M-32" value="DVR" style="rounded=0;whiteSpace=wrap;html=1;fontColor=#ffffff;fillColor=#1ba1e2;strokeColor=#006EAF;" vertex="1" parent="1">
          <mxGeometry x="175" y="225" width="120" height="60" as="geometry" />
        </mxCell>
      </root>
    </mxGraphModel>
  </diagram>
</mxfile>
